<?xml version="1.0" encoding="iso-8859-1"?>
<!-- Generator: Adobe Illustrator 19.0.0, SVG Export Plug-In . SVG Version: 6.00 Build 0)  -->
<svg version="1.1" id="Layer_1" xmlns="http://www.w3.org/2000/svg" xmlns:xlink="http://www.w3.org/1999/xlink" x="0px" y="0px"
	 viewBox="0 0 512 512" style="enable-background:new 0 0 512 512;" xml:space="preserve">
<g>
	<g>
		<g>
			<path d="M303.634,296.523c-100.115-33.007-200.12,44.274-200.12,146.598v50.147c0,10.345,8.387,18.732,18.732,18.732h179.451
				c3.448,0,6.244-2.795,6.244-6.244V302.468C307.941,299.765,306.202,297.37,303.634,296.523z M265.536,451.574
				c-7.289,0-13.198-5.909-13.198-13.198c0-7.289,5.909-13.198,13.198-13.198s13.198,5.909,13.198,13.198
				C278.735,445.665,272.824,451.574,265.536,451.574z"/>
			<path d="M342.718,316.034c-4.137-2.871-9.802,0.105-9.802,5.141v184.581c0,3.449,2.795,6.244,6.244,6.244h50.593
				c10.345,0,18.732-8.387,18.732-18.732v-51.882C408.484,389.498,382.428,343.588,342.718,316.034z"/>
			<path d="M159.621,37.451v96.679c0,3.449,2.796,6.244,6.244,6.244h180.268c3.449,0,6.244-2.795,6.244-6.244V37.451
				c10.228-0.136,18.481-8.459,18.481-18.719C370.857,8.387,362.47,0,352.126,0H159.872c-10.345,0-18.732,8.387-18.732,18.732
				C141.14,28.992,149.393,37.315,159.621,37.451z"/>
			<path d="M358.943,171.205c-0.212-3.292-2.941-5.856-6.239-5.856H159.295c-3.298,0-6.027,2.564-6.239,5.856
				c-3.786,58.753,43.175,109.539,102.943,109.539C315.857,280.745,362.72,229.877,358.943,171.205z"/>
		</g>
	</g>
</g>
<g>
</g>
<g>
</g>
<g>
</g>
<g>
</g>
<g>
</g>
<g>
</g>
<g>
</g>
<g>
</g>
<g>
</g>
<g>
</g>
<g>
</g>
<g>
</g>
<g>
</g>
<g>
</g>
<g>
</g>
</svg>
